# Blender v2.79 (sub 0) OBJ File: ''
# www.blender.org
v 0.000000 -0.871194 0.000000
v -0.000000 1.513350 -0.000000
v 17.320507 -0.991438 10.000001
v 17.320507 0.008562 10.000001
v -0.000002 -0.991438 20.000000
v -0.000002 0.008562 20.000000
v 15.997339 0.008562 9.236070
v -0.000002 0.008562 18.472137
v 1.992030 0.008562 1.150100
v 0.000000 0.008562 2.300198
v 1.500231 0.584461 0.866159
v 0.000000 0.584461 1.732317
v -0.000002 9.508562 18.472137
v 15.997339 9.508562 9.236070
v 0.893664 1.513350 0.515957
v 0.000000 1.513350 1.031913
v -0.000002 9.508562 20.000000
v 17.320507 9.508562 10.000001
vn -1.0000 0.0000 -0.0000
vn -0.0035 -1.0000 -0.0060
vn 0.0000 1.0000 0.0000
vn 0.5000 0.0000 0.8660
vn 0.5000 0.0000 -0.8660
vn 0.3802 0.6494 0.6586
vn -0.5000 0.0000 -0.8660
vn 0.4186 0.5468 0.7251
s off
f 10//1 12//1 1//1
f 5//1 10//1 1//1
f 1//2 3//2 5//2
f 2//3 16//3 15//3
f 4//4 5//4 3//4
f 3//5 9//5 7//5
f 9//5 1//5 11//5
f 2//1 12//1 16//1
f 4//4 17//4 6//4
f 9//3 8//3 7//3
f 12//6 9//6 11//6
f 13//3 18//3 14//3
f 6//1 13//1 8//1
f 8//7 14//7 7//7
f 16//8 11//8 15//8
f 11//5 2//5 15//5
f 6//1 8//1 5//1
f 7//5 18//5 4//5
f 4//5 3//5 7//5
f 5//1 8//1 10//1
f 4//4 6//4 5//4
f 3//5 1//5 9//5
f 2//1 1//1 12//1
f 4//4 18//4 17//4
f 9//3 10//3 8//3
f 12//6 10//6 9//6
f 13//3 17//3 18//3
f 6//1 17//1 13//1
f 8//7 13//7 14//7
f 16//8 12//8 11//8
f 11//5 1//5 2//5
f 7//5 14//5 18//5
