# Blender v2.79 (sub 0) OBJ File: ''
# www.blender.org
v 0.000000 -0.575667 -0.000000
v 0.000000 -0.575663 -23.117970
v 20.020748 -0.575665 -11.558985
v 3.602437 -0.000000 2.079869
v 3.602437 0.000000 -2.079867
v 3.002032 1.000000 -1.733223
v 3.002032 1.000000 1.733223
v 0.000000 0.000004 -23.117970
v 20.020748 0.000002 -11.558985
v 20.020748 -0.575669 11.558985
v -3.602439 -0.000000 2.079868
v -0.000001 -0.000001 4.159736
v 0.000000 0.999999 3.466446
v -3.002032 1.000000 1.733223
v 20.020748 -0.000002 11.558985
v -0.000002 -0.575671 23.117970
v -0.000001 0.000001 -4.159735
v -3.602439 0.000000 -2.079867
v -3.002032 1.000000 -1.733223
v 0.000000 1.000001 -3.466446
v -0.000002 -0.000004 23.117970
v -20.020748 -0.575669 11.558983
v -20.020748 -0.000002 11.558983
v -20.020748 -0.575665 -11.558983
v -20.020748 0.000002 -11.558983
v 19.123131 0.000002 -11.040743
v 19.123129 -0.000002 11.040745
v 19.123129 13.972142 11.040747
v 19.123131 13.972146 -11.040741
v -19.123131 -0.000002 11.040743
v -19.123131 0.000002 -11.040743
v -19.123131 13.972146 -11.040741
v -19.123131 13.972142 11.040745
v 0.000000 0.000004 -22.081490
v 0.000000 13.972148 -22.081488
v 20.020748 13.972142 11.558987
v -0.000002 13.972140 23.117971
v -0.000002 -0.000004 22.081490
v -0.000002 13.972140 22.081491
v -20.020748 13.972142 11.558985
v -20.020748 13.972146 -11.558981
v 20.020748 13.972146 -11.558983
v 0.000000 13.972148 -23.117968
vn -0.0000 -1.0000 -0.0000
vn 0.8573 0.5148 0.0000
vn 0.5000 0.0000 -0.8660
vn -0.4287 0.5148 0.7425
vn 1.0000 0.0000 0.0000
vn -0.4287 0.5148 -0.7425
vn 0.5000 0.0000 0.8660
vn 0.4287 0.5148 -0.7425
vn -0.5000 0.0000 0.8660
vn 0.4287 0.5148 0.7425
vn -1.0000 0.0000 0.0000
vn -0.8573 0.5148 0.0000
vn -0.5000 0.0000 -0.8660
vn -0.0000 1.0000 -0.0000
s 1
f 1//1 2//1 3//1
f 5//2 7//2 4//2
f 8//3 3//3 2//3
f 1//1 3//1 10//1
f 12//4 14//4 11//4
f 9//5 10//5 3//5
f 1//1 10//1 16//1
f 17//6 19//6 20//6
f 15//7 16//7 10//7
f 1//1 16//1 22//1
f 5//8 20//8 6//8
f 21//9 22//9 16//9
f 1//1 22//1 24//1
f 4//10 13//10 12//10
f 23//11 24//11 22//11
f 1//1 24//1 2//1
f 18//12 14//12 19//12
f 25//13 2//13 24//13
f 27//11 29//11 26//11
f 31//5 33//5 30//5
f 26//9 35//9 34//9
f 15//7 37//7 21//7
f 30//3 39//3 38//3
f 23//11 41//11 25//11
f 37//14 33//14 40//14
f 40//14 32//14 41//14
f 36//14 29//14 28//14
f 43//14 32//14 35//14
f 42//14 35//14 29//14
f 37//14 28//14 39//14
f 21//9 40//9 23//9
f 9//5 36//5 15//5
f 34//7 32//7 31//7
f 38//13 28//13 27//13
f 8//3 42//3 9//3
f 25//13 43//13 8//13
f 12//14 27//14 4//14
f 17//14 31//14 18//14
f 12//14 30//14 38//14
f 5//14 34//14 17//14
f 18//14 30//14 11//14
f 4//14 26//14 5//14
f 23//14 21//14 15//14
f 13//14 7//14 6//14
f 5//2 6//2 7//2
f 8//3 9//3 3//3
f 12//4 13//4 14//4
f 9//5 15//5 10//5
f 17//6 18//6 19//6
f 15//7 21//7 16//7
f 5//8 17//8 20//8
f 21//9 23//9 22//9
f 4//10 7//10 13//10
f 23//11 25//11 24//11
f 18//12 11//12 14//12
f 25//13 8//13 2//13
f 27//11 28//11 29//11
f 31//5 32//5 33//5
f 26//9 29//9 35//9
f 15//7 36//7 37//7
f 30//3 33//3 39//3
f 23//11 40//11 41//11
f 37//14 39//14 33//14
f 40//14 33//14 32//14
f 36//14 42//14 29//14
f 43//14 41//14 32//14
f 42//14 43//14 35//14
f 37//14 36//14 28//14
f 21//9 37//9 40//9
f 9//5 42//5 36//5
f 34//7 35//7 32//7
f 38//13 39//13 28//13
f 8//3 43//3 42//3
f 25//13 41//13 43//13
f 12//14 38//14 27//14
f 17//14 34//14 31//14
f 12//14 11//14 30//14
f 5//14 26//14 34//14
f 18//14 31//14 30//14
f 4//14 27//14 26//14
f 15//14 9//14 23//14
f 9//14 8//14 23//14
f 8//14 25//14 23//14
f 6//14 20//14 13//14
f 20//14 19//14 13//14
f 19//14 14//14 13//14
