<?xml version="1.0" encoding="utf-8"?>
<!-- Generator: Adobe Illustrator 19.0.0, SVG Export Plug-In . SVG Version: 6.00 Build 0)  -->
<svg version="1.1" id="Capa_1" xmlns="http://www.w3.org/2000/svg" xmlns:xlink="http://www.w3.org/1999/xlink" x="0px" y="0px"
	 viewBox="0 0 714.2 531" style="enable-background:new 0 0 714.2 531;" xml:space="preserve">
<style type="text/css">
	.st0{fill:#181818;}
	.st1{fill:#E5E5E5;}
	.st2{fill:#11882A;}
	.st3{font-family:'JosefinSans';}
	.st4{font-size:19.4931px;}
	.st5{fill:none;stroke:#E5E5E5;stroke-width:3;stroke-miterlimit:10;}
	.st6{font-size:23.1326px;}
	.st7{fill:#11882A;stroke:#E5E5E5;stroke-width:3;stroke-miterlimit:10;}
</style>
<g id="XMLID_26_">
	<path id="XMLID_1_" class="st0" d="M582.5,483h-419c-6.6,0-12-5.4-12-12V52c0-6.6,5.4-12,12-12h419c6.6,0,12,5.4,12,12v419
		C594.5,477.6,589.1,483,582.5,483z"/>
	<rect id="XMLID_2_" x="539.8" y="62.1" class="st1" width="14.7" height="398.7"/>
	<rect id="XMLID_15_" x="566.5" y="62.1" class="st1" width="14.7" height="398.7"/>
	<rect id="XMLID_4_" x="513" y="62.1" class="st1" width="14.7" height="398.7"/>
	<rect id="XMLID_6_" x="486.2" y="62.1" class="st1" width="14.7" height="398.7"/>
	<rect id="XMLID_5_" x="459.4" y="62.1" class="st1" width="14.7" height="398.7"/>
	<rect id="XMLID_10_" x="432.7" y="62.1" class="st1" width="14.7" height="398.7"/>
	<rect id="XMLID_9_" x="405.9" y="62.1" class="st1" width="14.7" height="398.7"/>
	<rect id="XMLID_8_" x="379.1" y="62.1" class="st1" width="14.7" height="398.7"/>
	<rect id="XMLID_7_" x="165" y="62.1" class="st1" width="14.7" height="398.7"/>
	<rect id="XMLID_18_" x="352.4" y="62.1" class="st1" width="14.7" height="398.7"/>
	<rect id="XMLID_17_" x="325.6" y="62.1" class="st1" width="14.7" height="398.7"/>
	<rect id="XMLID_14_" x="245.3" y="62.1" class="st1" width="14.7" height="398.7"/>
	<rect id="XMLID_16_" x="272.1" y="62.1" class="st1" width="14.7" height="398.7"/>
	<rect id="XMLID_19_" x="298.8" y="62.1" class="st1" width="14.7" height="398.7"/>
	<rect id="XMLID_13_" x="218.5" y="62.1" class="st1" width="14.7" height="398.7"/>
	<rect id="XMLID_12_" x="191.8" y="62.1" class="st1" width="14.7" height="398.7"/>
	<rect id="XMLID_3_" x="165" y="239.4" class="st2" width="14.7" height="44.3"/>
	<rect id="XMLID_32_" x="191.8" y="239.4" class="st2" width="14.7" height="44.3"/>
	<rect id="XMLID_41_" x="218.5" y="239.4" class="st2" width="14.7" height="44.3"/>
	<rect id="XMLID_40_" x="218.5" y="195.1" class="st2" width="14.7" height="44.3"/>
	<rect id="XMLID_54_" x="245.3" y="239.4" class="st2" width="14.7" height="44.3"/>
	<rect id="XMLID_53_" x="245.3" y="195.1" class="st2" width="14.7" height="44.3"/>
	<rect id="XMLID_63_" x="272.1" y="239.4" class="st2" width="14.7" height="44.3"/>
	<rect id="XMLID_62_" x="272.1" y="195.1" class="st2" width="14.7" height="44.3"/>
	<rect id="XMLID_61_" x="272.1" y="150.7" class="st2" width="14.7" height="44.3"/>
	<rect id="XMLID_72_" x="298.8" y="239.4" class="st2" width="14.7" height="44.3"/>
	<rect id="XMLID_71_" x="298.8" y="195.1" class="st2" width="14.7" height="44.3"/>
	<rect id="XMLID_70_" x="298.8" y="150.7" class="st2" width="14.7" height="44.3"/>
	<rect id="XMLID_99_" x="379.1" y="239.4" class="st2" width="14.7" height="44.3"/>
	<rect id="XMLID_108_" x="405.9" y="239.4" class="st2" width="14.7" height="44.3"/>
	<rect id="XMLID_100_" x="405.9" y="283.7" class="st2" width="14.7" height="44.3"/>
	<rect id="XMLID_117_" x="432.7" y="239.4" class="st2" width="14.7" height="44.3"/>
	<rect id="XMLID_126_" x="459.4" y="239.4" class="st2" width="14.7" height="44.3"/>
	<rect id="XMLID_119_" x="459.4" y="328" class="st2" width="14.7" height="44.3"/>
	<rect id="XMLID_118_" x="459.4" y="283.7" class="st2" width="14.7" height="44.3"/>
	<rect id="XMLID_135_" x="486.2" y="239.4" class="st2" width="14.7" height="44.3"/>
	<rect id="XMLID_144_" x="513" y="239.4" class="st2" width="14.7" height="44.3"/>
	<rect id="XMLID_138_" x="513" y="372.3" class="st2" width="14.7" height="44.3"/>
	<rect id="XMLID_137_" x="513" y="328" class="st2" width="14.7" height="44.3"/>
	<rect id="XMLID_136_" x="513" y="283.7" class="st2" width="14.7" height="44.3"/>
	<rect id="XMLID_153_" x="539.8" y="239.4" class="st2" width="14.7" height="44.3"/>
	<rect id="XMLID_162_" x="566.5" y="239.4" class="st2" width="14.7" height="44.3"/>
	<rect id="XMLID_157_" x="566.5" y="416.6" class="st2" width="14.7" height="44.3"/>
	<rect id="XMLID_156_" x="566.5" y="372.3" class="st2" width="14.7" height="44.3"/>
	<rect id="XMLID_155_" x="566.5" y="328" class="st2" width="14.7" height="44.3"/>
	<rect id="XMLID_154_" x="566.5" y="283.7" class="st2" width="14.7" height="44.3"/>
	<polygon id="XMLID_11_" class="st1" points="137,266.4 113.1,266.4 113.1,256.6 137,256.6 145.2,261.5 	"/>
	<polygon id="XMLID_22_" class="st1" points="137,465.7 113.1,465.7 113.1,456 137,456 145.2,460.9 	"/>
	<polygon id="XMLID_21_" class="st1" points="137,67 113.1,67 113.1,57.3 137,57.3 145.2,62.1 	"/>
	<text id="XMLID_20_" transform="matrix(1 0 0 1 59.6611 266.377)" class="st3 st4">Root</text>
	<polygon id="XMLID_44_" class="st0" points="608.9,258.5 632.8,258.5 632.8,268.2 608.9,268.2 600.7,263.4 	"/>
	<polygon id="XMLID_45_" class="st0" points="608.9,212.1 632.8,212.1 632.8,221.9 608.9,221.9 600.7,217 	"/>
	<polygon id="XMLID_47_" class="st0" points="608.9,167.8 632.8,167.8 632.8,177.6 608.9,177.6 600.7,172.7 	"/>
	<polygon id="XMLID_48_" class="st0" points="608.9,123.5 632.8,123.5 632.8,133.3 608.9,133.3 600.7,128.4 	"/>
	<polygon id="XMLID_50_" class="st0" points="608.9,79.4 632.8,79.4 632.8,89.2 608.9,89.2 600.7,84.3 	"/>
	<polygon id="XMLID_52_" class="st0" points="608.9,436.5 632.8,436.5 632.8,446.3 608.9,446.3 600.7,441.4 	"/>
	<polygon id="XMLID_51_" class="st0" points="608.9,392.2 632.8,392.2 632.8,402 608.9,402 600.7,397.1 	"/>
	<polygon id="XMLID_49_" class="st0" points="608.9,345.2 632.8,345.2 632.8,355 608.9,355 600.7,350.1 	"/>
	<polygon id="XMLID_46_" class="st0" points="608.9,300.9 632.8,300.9 632.8,310.7 608.9,310.7 600.7,305.8 	"/>
	<text id="XMLID_24_" transform="matrix(1 0 0 1 23.0381 67.0156)" class="st3 st4">Octave Up</text>
	<text id="XMLID_25_" transform="matrix(1 0 0 1 -5.722046e-006 465.7373)" class="st3 st4">Octave Down</text>
	<polygon id="XMLID_23_" class="st1" points="145.2,252.3 129.2,252.3 137.2,75.7 145.2,75.7 	"/>
	<polygon id="XMLID_27_" class="st1" points="145.2,448.2 137.2,448.2 129.2,271.5 145.2,271.5 	"/>
	<line id="XMLID_37_" class="st5" x1="333.3" y1="11.7" x2="333.3" y2="55.7"/>
	<line id="XMLID_169_" class="st5" x1="172.3" y1="31.7" x2="172.3" y2="55.7"/>
	<line id="XMLID_171_" class="st5" x1="199.3" y1="32.7" x2="199.3" y2="56.7"/>
	<line id="XMLID_173_" class="st5" x1="226.3" y1="31.7" x2="226.3" y2="55.7"/>
	<line id="XMLID_172_" class="st5" x1="253.3" y1="32.7" x2="253.3" y2="56.7"/>
	<line id="XMLID_177_" class="st5" x1="279.3" y1="31.7" x2="279.3" y2="55.7"/>
	<line id="XMLID_176_" class="st5" x1="306.3" y1="32.7" x2="306.3" y2="56.7"/>
	<line id="XMLID_175_" class="st5" x1="333.3" y1="31.7" x2="333.3" y2="55.7"/>
	<line id="XMLID_174_" class="st5" x1="360.3" y1="32.7" x2="360.3" y2="56.7"/>
	<line id="XMLID_181_" class="st5" x1="387.3" y1="31.7" x2="387.3" y2="55.7"/>
	<line id="XMLID_180_" class="st5" x1="414.3" y1="32.7" x2="414.3" y2="56.7"/>
	<line id="XMLID_179_" class="st5" x1="441.3" y1="31.7" x2="441.3" y2="55.7"/>
	<line id="XMLID_178_" class="st5" x1="468.3" y1="32.7" x2="468.3" y2="56.7"/>
	<line id="XMLID_185_" class="st5" x1="493.3" y1="31.7" x2="493.3" y2="55.7"/>
	<line id="XMLID_184_" class="st5" x1="520.3" y1="32.7" x2="520.3" y2="56.7"/>
	<line id="XMLID_183_" class="st5" x1="547.3" y1="31.7" x2="547.3" y2="55.7"/>
	<line id="XMLID_182_" class="st5" x1="574.3" y1="32.7" x2="574.3" y2="56.7"/>
	<line id="XMLID_36_" class="st5" x1="360.3" y1="12.7" x2="360.3" y2="56.7"/>
	<line id="XMLID_35_" class="st5" x1="331.8" y1="12.2" x2="393.8" y2="12.2"/>
	<line id="XMLID_170_" class="st5" x1="170.8" y1="32.2" x2="603.8" y2="32.2"/>
	<text id="XMLID_34_" transform="matrix(1 0 0 1 400.0727 19.6625)" class="st3 st6">Off Steps</text>
	<text id="XMLID_186_" transform="matrix(1 0 0 1 607.0728 39.9916)" class="st3 st6">Steps</text>
	<line id="XMLID_33_" class="st7" x1="170.3" y1="467.7" x2="170.3" y2="496.7"/>
	<line id="XMLID_30_" class="st7" x1="168.8" y1="496.2" x2="607.8" y2="496.2"/>
	<text id="XMLID_29_" transform="matrix(1 0 0 1 612.8228 502.293)" class="st3 st6">Down Beat</text>
	<line id="XMLID_39_" class="st7" x1="279.3" y1="465.7" x2="279.3" y2="519.7"/>
	<line id="XMLID_42_" class="st7" x1="494.3" y1="465.7" x2="494.3" y2="519.7"/>
	<line id="XMLID_38_" class="st7" x1="277.8" y1="519.2" x2="607.8" y2="519.2"/>
	<text id="XMLID_31_" transform="matrix(1 0 0 1 612.8228 525.4258)" class="st3 st6">Back Beat</text>
</g>
</svg>
