<?xml version="1.0" encoding="utf-8"?>
<!-- Generator: Adobe Illustrator 19.0.0, SVG Export Plug-In . SVG Version: 6.00 Build 0)  -->
<svg version="1.1" id="Capa_1" xmlns="http://www.w3.org/2000/svg" xmlns:xlink="http://www.w3.org/1999/xlink" x="0px" y="0px"
	 viewBox="0 0 670.3 507.2" style="enable-background:new 0 0 670.3 507.2;" xml:space="preserve">
<style type="text/css">
	.st0{fill:#E5E5E5;}
	.st1{fill:#181818;}
	.st2{fill:#DF2230;}
	.st3{font-family:'JosefinSans';}
	.st4{font-size:19.4931px;}
	.st5{fill:none;stroke:#181818;stroke-width:3;stroke-miterlimit:10;}
	.st6{fill:none;stroke:#E5E5E5;stroke-width:3;stroke-miterlimit:10;}
</style>
<path id="XMLID_16_" class="st0" d="M435.1,288.3l32.1,6.4c2.7-13.6,4.1-27.6,4.2-42c0.1-14.5-1.2-28.7-3.8-42.5l-32,6L435.1,288.3z
	"/>
<path id="XMLID_18_" class="st0" d="M42.1,217.1l-32.1-5.9c-2.5,13.6-3.8,27.7-3.6,42c0.1,14.5,1.6,28.7,4.4,42.5l31.9-6.5
	L42.1,217.1z"/>
<path id="XMLID_15_" class="st0" d="M273,60.4l6.1-32.1c-13.6-2.6-27.6-4-42-4c-14.5,0-28.7,1.4-42.5,4.1l6.2,32H273z"/>
<circle id="XMLID_5_" class="st1" cx="237.2" cy="253.6" r="223.3"/>
<path id="XMLID_71_" class="st0" d="M285.3,174.4l27.4-41c-13.8-8.7-29.1-15.1-45.5-18.6l-9.6,48.4
	C267.6,165.4,276.9,169.2,285.3,174.4z"/>
<path id="XMLID_51_" class="st0" d="M316.3,301.9l41,27.4c8.8-13.9,15.3-29.5,18.8-46.2l-48.4-9.6
	C325.5,283.7,321.6,293.2,316.3,301.9z"/>
<path id="XMLID_52_" class="st2" d="M329.9,253.6c0,4.8-0.4,9.4-1.1,14l48.4,9.6c1.3-7.7,2-15.6,2-23.6c0-8.9-0.8-17.6-2.4-26.1
	l-48.4,9.6C329.4,242.5,329.9,248,329.9,253.6z"/>
<path id="XMLID_53_" class="st0" d="M183.5,178l-27.4-41c-13.5,9.4-25.3,21.1-34.9,34.5l41,27.4C168.2,190.9,175.4,183.8,183.5,178z
	"/>
<path id="XMLID_54_" class="st0" d="M158.9,203.9l-41-27.4c-8.9,13.7-15.5,29-19.2,45.3l48.4,9.6
	C149.6,221.6,153.6,212.3,158.9,203.9z"/>
<path id="XMLID_55_" class="st0" d="M216.1,163.3l-9.6-48.4c-16.3,3.6-31.6,10-45.3,18.8l27.4,41
	C196.9,169.5,206.2,165.6,216.1,163.3z"/>
<path id="XMLID_56_" class="st0" d="M146.6,273.4L98.2,283c3.5,16.6,9.9,32.1,18.6,46l41-27.4C152.6,293,148.8,283.5,146.6,273.4z"
	/>
<path id="XMLID_57_" class="st2" d="M144.4,253.6c0-5.6,0.5-11,1.4-16.3l-48.4-9.6c-1.6,8.4-2.4,17.1-2.4,25.9c0,8,0.7,15.8,2,23.5
	l48.4-9.6C144.8,263,144.4,258.3,144.4,253.6z"/>
<path id="XMLID_61_" class="st0" d="M161.1,306.6l-41,27.4c9.5,13.8,21.3,25.8,34.9,35.5l27.4-41C174.2,322.4,166.9,315,161.1,306.6
	z"/>
<path id="XMLID_62_" class="st0" d="M327.2,231.3l48.4-9.6c-3.8-16.4-10.4-31.8-19.4-45.5l-41,27.4
	C320.6,212,324.7,221.4,327.2,231.3z"/>
<path id="XMLID_63_" class="st0" d="M237.2,160.9c5,0,9.8,0.4,14.6,1.1l9.6-48.4c-7.9-1.4-16-2.1-24.2-2.1c-8.5,0-16.8,0.7-24.8,2.2
	l9.6,48.4C226.9,161.3,232,160.9,237.2,160.9z"/>
<path id="XMLID_70_" class="st0" d="M311.8,198.7l41-27.4c-9.6-13.5-21.5-25.2-35.1-34.6l-27.4,41
	C298.6,183.5,305.8,190.6,311.8,198.7z"/>
<path id="XMLID_72_" class="st0" d="M237.2,346.4c-5.4,0-10.6-0.5-15.7-1.3l-9.6,48.4c8.2,1.5,16.7,2.3,25.3,2.3
	c8.4,0,16.7-0.7,24.7-2.2l-9.6-48.4C247.3,345.9,242.3,346.4,237.2,346.4z"/>
<path id="XMLID_99_" class="st0" d="M291.5,328.7l27.4,41c13.7-9.7,25.6-21.7,35.2-35.5l-41-27.4
	C307.1,315.3,299.8,322.7,291.5,328.7z"/>
<path id="XMLID_100_" class="st0" d="M187.4,331.8l-27.4,41c13.9,9,29.4,15.7,46,19.4l9.6-48.4C205.4,341.4,195.9,337.3,187.4,331.8
	z"/>
<path id="XMLID_108_" class="st0" d="M258.1,344l9.6,48.4c16.7-3.7,32.3-10.3,46.2-19.2l-27.4-41C277.9,337.5,268.3,341.6,258.1,344
	z"/>
<path id="XMLID_146_" class="st0" d="M268.3,294l19.9,29.7c7.7-5.6,14.4-12.4,19.9-20.2l-29.7-19.9
	C275.5,287.6,272.1,291.1,268.3,294z"/>
<path id="XMLID_147_" class="st0" d="M250,303l7,35.1c9.4-2.2,18.3-6,26.2-11l-19.9-29.7C259.2,299.9,254.7,301.8,250,303z"/>
<path id="XMLID_148_" class="st2" d="M237.2,304.6c-2.6,0-5.1-0.2-7.6-0.6l-7,35.1c4.7,0.8,9.6,1.2,14.5,1.2c4.7,0,9.4-0.4,13.9-1.1
	l-7-35.1C241.8,304.5,239.5,304.6,237.2,304.6z"/>
<path id="XMLID_149_" class="st0" d="M210.5,297.1l-19.9,29.7c7.9,5,16.7,8.8,26.1,11.1l7-35.1C219,301.5,214.6,299.6,210.5,297.1z"
	/>
<path id="XMLID_150_" class="st2" d="M288.2,253.6c0,2-0.1,3.9-0.3,5.8l35.1,7c0.6-4.2,0.9-8.5,0.9-12.8c0-5.2-0.5-10.3-1.3-15.3
	l-35.1,7C287.9,248,288.2,250.8,288.2,253.6z"/>
<path id="XMLID_151_" class="st0" d="M281.6,278.6l29.8,19.9c4.9-8,8.4-16.8,10.5-26.2l-35.1-7C285.7,270.1,283.9,274.5,281.6,278.6
	z"/>
<path id="XMLID_152_" class="st0" d="M286.2,239.5l35.1-7c-2.3-9.2-6.1-17.8-11.1-25.6l-29.7,19.9
	C282.9,230.7,284.9,235,286.2,239.5z"/>
<path id="XMLID_153_" class="st0" d="M195.8,283.4l-29.7,19.9c5.4,7.7,12.1,14.6,19.7,20.2l19.9-29.8
	C201.9,290.7,198.6,287.3,195.8,283.4z"/>
<path id="XMLID_154_" class="st0" d="M193.6,227.1l-29.7-19.9c-4.9,7.7-8.6,16.3-10.9,25.4l35.1,7
	C189.4,235.2,191.3,231,193.6,227.1z"/>
<path id="XMLID_155_" class="st0" d="M262.1,209.2l19.9-29.8c-7.8-4.7-16.4-8.3-25.5-10.3l-7,35.1
	C254,205.2,258.2,206.9,262.1,209.2z"/>
<path id="XMLID_156_" class="st2" d="M237.2,202.6c2.2,0,4.3,0.2,6.4,0.4l7-35.1c-4.4-0.7-8.8-1-13.4-1c-4.8,0-9.5,0.4-14,1.1
	l7,35.1C232.4,202.8,234.8,202.6,237.2,202.6z"/>
<path id="XMLID_162_" class="st0" d="M277,221.9l29.8-19.9c-5.5-7.4-12.2-14-19.8-19.3l-19.9,29.7
	C270.9,215.1,274.2,218.3,277,221.9z"/>
<path id="XMLID_163_" class="st0" d="M187.5,265.2l-35.1,7c2,9.3,5.6,18.1,10.4,26l29.8-19.9C190.3,274.3,188.6,269.9,187.5,265.2z"
	/>
<path id="XMLID_164_" class="st0" d="M224.2,204.3l-7-35.1c-9.1,2.1-17.6,5.7-25.4,10.5l19.9,29.8
	C215.6,207.2,219.8,205.5,224.2,204.3z"/>
<path id="XMLID_165_" class="st2" d="M186.2,253.6c0-2.8,0.2-5.5,0.7-8.2l-35.1-7c-0.9,4.9-1.3,10-1.3,15.1c0,4.3,0.3,8.5,0.9,12.7
	l35.1-7C186.3,257.4,186.2,255.5,186.2,253.6z"/>
<path id="XMLID_166_" class="st2" d="M206.7,212.7L186.9,183c-7.5,5.4-14.1,11.9-19.6,19.3l29.8,19.9
	C199.9,218.6,203.1,215.4,206.7,212.7z"/>
<path id="XMLID_631_" class="st1" d="M257.6,163.2l9.6-48.4c-1-0.2-2-0.4-2.9-0.6l-9.6,48.4C255.7,162.7,256.7,162.9,257.6,163.2z"
	/>
<path id="XMLID_20_" class="st2" d="M29.3,290.6l61.8-12.3c-1.1-6.8-1.8-13.8-2-20.9h-63C26.3,268.7,27.4,279.8,29.3,290.6z"/>
<path id="XMLID_116_" class="st0" d="M91.6,226.5l-61.8-12.3c-2.3,12-3.5,24.5-3.7,37.1h63C89.3,242.9,90.1,234.6,91.6,226.5z"/>
<path id="XMLID_117_" class="st2" d="M31,208.4l61.8,12.3c1.6-7.1,3.7-13.9,6.3-20.6l-58.3-24.1C36.7,186.4,33.4,197.2,31,208.4z"/>
<path id="XMLID_118_" class="st0" d="M112.9,173.2l-52.4-35c-6.7,10.2-12.5,21-17.3,32.3l58.3,24.1
	C104.7,187.1,108.5,179.9,112.9,173.2z"/>
<path id="XMLID_119_" class="st0" d="M156.6,377.8l-35,52.4c10,6.5,20.5,12.2,31.6,17l24.1-58.3
	C170.1,385.8,163.2,382.1,156.6,377.8z"/>
<path id="XMLID_120_" class="st0" d="M192.5,459.9l12.3-61.8c-7.5-1.7-14.9-4-21.9-6.8l-24.1,58.2
	C169.6,453.9,180.8,457.4,192.5,459.9z"/>
<path id="XMLID_121_" class="st2" d="M152.8,132l-35-52.4c-10,6.9-19.3,14.6-28,23l44.6,44.6C140.1,141.6,146.3,136.6,152.8,132z"/>
<path id="XMLID_122_" class="st0" d="M63.8,133.2l52.4,35c4.2-5.9,8.9-11.5,13.9-16.8l-44.6-44.6C77.6,115,70.4,123.8,63.8,133.2z"
	/>
<path id="XMLID_123_" class="st0" d="M115.1,337.3l-52.4,35c6.9,10.1,14.7,19.6,23.2,28.4l44.6-44.6
	C124.9,350.3,119.7,344,115.1,337.3z"/>
<path id="XMLID_124_" class="st2" d="M116.6,426.9l35-52.4c-6-4.3-11.6-8.9-16.9-14L90.1,405C98.3,413,107.2,420.3,116.6,426.9z"/>
<path id="XMLID_125_" class="st0" d="M210.7,399.3l-12.3,61.8c11.5,2.1,23.4,3.3,35.5,3.5v-63C225.9,401.5,218.2,400.7,210.7,399.3z
	"/>
<path id="XMLID_126_" class="st2" d="M275.3,461.2L263,399.4c-7.6,1.3-15.3,2.1-23.2,2.2v63C251.9,464.5,263.8,463.3,275.3,461.2z"
	/>
<path id="XMLID_127_" class="st0" d="M59.3,367.4l52.5-35.1c-3.8-6.1-7.3-12.5-10.2-19.2l-58.3,24.1
	C47.9,347.8,53.2,357.8,59.3,367.4z"/>
<path id="XMLID_128_" class="st0" d="M92.3,284.2l-61.8,12.3c2.5,12.2,6.1,23.9,10.6,35.2l58.3-24.1C96.3,300.1,94,292.2,92.3,284.2
	z"/>
<path id="XMLID_129_" class="st0" d="M352.3,430.5l-35-52.4c-6.7,4.3-13.7,8.1-21,11.3l24.1,58.3
	C331.5,442.8,342.2,437.1,352.3,430.5z"/>
<path id="XMLID_130_" class="st0" d="M268.9,398.3l12.3,61.8c11.6-2.5,22.8-5.9,33.6-10.1l-24.1-58.3
	C283.7,394.4,276.4,396.6,268.9,398.3z"/>
<path id="XMLID_131_" class="st2" d="M356.1,79.2l-35,52.4c6.6,4.6,12.9,9.7,18.7,15.2l44.6-44.6C375.6,93.9,366.2,86.1,356.1,79.2z
	"/>
<path id="XMLID_132_" class="st0" d="M357.8,167.9l52.4-35c-6.5-9.3-13.8-18.1-21.7-26.3L344,151.2C349,156.4,353.6,162,357.8,167.9
	z"/>
<path id="XMLID_133_" class="st0" d="M443.9,296.6L382,284.3c-1.7,8.1-4.1,16-7.1,23.5l58.3,24.1
	C437.7,320.6,441.3,308.8,443.9,296.6z"/>
<path id="XMLID_134_" class="st0" d="M362.4,332.6l52.5,35c6.1-9.6,11.5-19.6,16.1-30.2l-58.3-24.1
	C369.7,320,366.2,326.5,362.4,332.6z"/>
<path id="XMLID_135_" class="st0" d="M381.5,220.5l61.8-12.3c-2.5-11.2-5.8-22.1-10-32.5l-58.3,24.1
	C377.7,206.5,379.9,213.4,381.5,220.5z"/>
<path id="XMLID_136_" class="st0" d="M413.7,137.8l-52.4,35c4.4,6.8,8.3,13.9,11.6,21.4l58.3-24.1
	C426.2,158.8,420.4,148,413.7,137.8z"/>
<path id="XMLID_137_" class="st2" d="M122.8,76.2l35,52.4c6.2-4,12.8-7.5,19.6-10.5l-24.1-58.3C142.6,64.5,132.4,70,122.8,76.2z"/>
<path id="XMLID_138_" class="st0" d="M205.3,109L193,47.2c-11.8,2.5-23.2,6-34.2,10.4l24.1,58.2C190.1,113,197.6,110.7,205.3,109z"
	/>
<path id="XMLID_139_" class="st2" d="M444.5,214.1l-61.8,12.3c1.5,8.1,2.4,16.4,2.5,25h63C448.1,238.6,446.8,226.2,444.5,214.1z"/>
<path id="XMLID_140_" class="st0" d="M383.2,278.4l61.8,12.3c1.9-10.9,3-22,3.2-33.3h-63C385,264.5,384.3,271.5,383.2,278.4z"/>
<path id="XMLID_141_" class="st0" d="M316.1,128.4l35-52.5c-9.8-6.3-20.1-11.7-30.8-16.4l-24.1,58.3
	C303.1,120.8,309.7,124.4,316.1,128.4z"/>
<path id="XMLID_142_" class="st0" d="M280.7,47.1l-12.3,61.8c7.6,1.6,15,3.9,22.2,6.6l24.1-58.3C303.8,53,292.5,49.5,280.7,47.1z"/>
<path id="XMLID_143_" class="st0" d="M322.2,374.8l35,52.4c9.5-6.6,18.4-13.9,26.7-22l-44.6-44.6C334,365.8,328.3,370.5,322.2,374.8
	z"/>
<path id="XMLID_144_" class="st2" d="M411.5,372.7l-52.4-35c-4.6,6.7-9.8,13-15.4,18.8l44.6,44.6
	C396.8,392.3,404.6,382.8,411.5,372.7z"/>
<path id="XMLID_145_" class="st0" d="M262.5,107.7l12.3-61.8c-11.4-2.1-23.1-3.2-35-3.3v63C247.6,105.7,255.1,106.5,262.5,107.7z"/>
<path id="XMLID_167_" class="st2" d="M198.9,46l12.3,61.8c7.4-1.3,15-2.1,22.7-2.3v-63C221.9,42.8,210.2,43.9,198.9,46z"/>
<path id="XMLID_6_" class="st0" d="M523.2,160.9c5,0,9.8,0.4,14.6,1.1l9.6-48.4c-7.9-1.4-16-2.1-24.2-2.1c-8.5,0-16.8,0.7-24.8,2.2
	l9.6,48.4C512.9,161.3,518,160.9,523.2,160.9z"/>
<path id="XMLID_4_" class="st0" d="M523.2,202.6c2.2,0,4.3,0.2,6.4,0.4l7-35.1c-4.4-0.7-8.8-1-13.4-1c-4.8,0-9.5,0.4-14,1.1l7,35.1
	C518.4,202.8,520.8,202.6,523.2,202.6z"/>
<path id="XMLID_3_" class="st0" d="M548.5,107.7l12.3-61.8c-11.4-2.1-23.1-3.2-35-3.3v63C533.6,105.7,541.1,106.5,548.5,107.7z"/>
<path id="XMLID_2_" class="st0" d="M484.9,46l12.3,61.8c7.4-1.3,15-2.1,22.7-2.3v-63C507.9,42.8,496.2,43.9,484.9,46z"/>
<text id="XMLID_29_" transform="matrix(1 0 0 1 571.8334 191.3853)" class="st3 st4">Kick</text>
<text id="XMLID_7_" transform="matrix(1 0 0 1 571.8334 146.7186)" class="st3 st4">Snare</text>
<text id="XMLID_8_" transform="matrix(1 0 0 1 571.8334 64.7186)" class="st3 st4">Open Hihat</text>
<text id="XMLID_17_" transform="matrix(1 0 0 1 265.7403 20.3597)" class="st3 st4">Down Beat</text>
<text id="XMLID_9_" transform="matrix(1 0 0 1 571.8334 93.9708)" class="st3 st4">Close Hihat</text>
<line id="XMLID_1_" class="st5" x1="528.8" y1="184.9" x2="568.8" y2="184.9"/>
<line id="XMLID_11_" class="st5" x1="528.8" y1="137.9" x2="568.8" y2="137.9"/>
<line id="XMLID_12_" class="st5" x1="547.8" y1="57.9" x2="568.8" y2="57.9"/>
<line id="XMLID_13_" class="st5" x1="508.8" y1="86.9" x2="568.8" y2="86.9"/>
<text id="XMLID_31_" transform="matrix(1 0 0 1 436.8334 444.3853)" class="st3 st4">Empty Step</text>
<text id="XMLID_30_" transform="matrix(1 0 0 1 436.8334 391.7186)" class="st3 st4">Active Step</text>
<line id="XMLID_26_" class="st6" x1="328.8" y1="437.9" x2="433.8" y2="437.9"/>
<line id="XMLID_25_" class="st6" x1="393.8" y1="382.9" x2="433.8" y2="382.9"/>
<line id="XMLID_10_" class="st6" x1="237.3" y1="27.4" x2="237.3" y2="13.4"/>
<line id="XMLID_14_" class="st6" x1="236.8" y1="14.9" x2="263.8" y2="14.9"/>
<text id="XMLID_22_" transform="matrix(1 0 0 1 485.7703 254.6222)" class="st3 st4">Back Beat</text>
<line id="XMLID_21_" class="st6" x1="466.8" y1="248.9" x2="483.8" y2="248.9"/>
</svg>
