<?xml version="1.0" encoding="utf-8"?>
<!-- Generator: Adobe Illustrator 19.0.0, SVG Export Plug-In . SVG Version: 6.00 Build 0)  -->
<svg version="1.1" id="Capa_1" xmlns="http://www.w3.org/2000/svg" xmlns:xlink="http://www.w3.org/1999/xlink" x="0px" y="0px"
	 viewBox="0 0 714.2 531" style="enable-background:new 0 0 714.2 531;" xml:space="preserve">
<style type="text/css">
	.st0{fill:#181818;}
	.st1{font-family:'JosefinSans';}
	.st2{font-size:19.4931px;}
	.st3{fill:#E5E5E5;}
	.st4{fill:#791FC6;}
	.st5{fill:none;stroke:#E5E5E5;stroke-width:3;stroke-miterlimit:10;}
</style>
<path id="XMLID_1_" class="st0" d="M582.5,483h-419c-6.6,0-12-5.4-12-12V52c0-6.6,5.4-12,12-12h419c6.6,0,12,5.4,12,12v419
	C594.5,477.6,589.1,483,582.5,483z"/>
<text id="XMLID_20_" transform="matrix(1 0 0 1 11.1611 270.6967)" class="st1 st2">Melodic Scale</text>
<text id="XMLID_29_" transform="matrix(1 0 0 1 567.8334 23.2091)" class="st1 st2">Bar Pages</text>
<text id="XMLID_57_" transform="matrix(1 0 0 1 342.4998 28.0001)" class="st1 st2">Empty Step</text>
<text id="XMLID_30_" transform="matrix(1 0 0 1 634.5807 314.5001)"><tspan x="0" y="0" class="st1 st2">Active</tspan><tspan x="3.4" y="16" class="st1 st2">Page</tspan></text>
<text id="XMLID_43_" transform="matrix(1 0 0 1 614.4868 509.1667)" class="st1 st2">Steps</text>
<polygon id="XMLID_23_" class="st3" points="145.2,261.5 122.3,261.5 137.2,75.7 145.2,75.7 "/>
<polygon id="XMLID_27_" class="st3" points="145.2,448.2 137.2,448.2 122.3,261.5 145.2,261.5 "/>
<path id="XMLID_2_" class="st3" d="M566.5,457.7h-40c-6.6,0-12-5.4-12-12v-64.3c0-6.6,5.4-12,12-12h40c6.6,0,12,5.4,12,12v64.3
	C578.5,452.3,573.1,457.7,566.5,457.7z"/>
<path id="XMLID_4_" class="st3" d="M566.5,260.3h-40c-6.6,0-12-5.4-12-12V184c0-6.6,5.4-12,12-12h40c6.6,0,12,5.4,12,12v64.3
	C578.5,254.9,573.1,260.3,566.5,260.3z"/>
<path id="XMLID_5_" class="st4" d="M566.5,359h-40c-6.6,0-12-5.4-12-12v-64.3c0-6.6,5.4-12,12-12h40c6.6,0,12,5.4,12,12V347
	C578.5,353.6,573.1,359,566.5,359z"/>
<path id="XMLID_6_" class="st3" d="M566.5,161.6h-40c-6.6,0-12-5.4-12-12V85.3c0-6.6,5.4-12,12-12h40c6.6,0,12,5.4,12,12v64.3
	C578.5,156.2,573.1,161.6,566.5,161.6z"/>
<circle id="XMLID_3_" class="st3" cx="489.7" cy="86.6" r="16.6"/>
<circle id="XMLID_8_" class="st3" cx="444.9" cy="86.6" r="16.6"/>
<circle id="XMLID_9_" class="st3" cx="400.1" cy="86.6" r="16.6"/>
<circle id="XMLID_10_" class="st3" cx="355.2" cy="86.6" r="16.6"/>
<circle id="XMLID_15_" class="st3" cx="310.4" cy="86.6" r="16.6"/>
<circle id="XMLID_14_" class="st3" cx="265.6" cy="86.6" r="16.6"/>
<circle id="XMLID_13_" class="st3" cx="220.8" cy="86.6" r="16.6"/>
<circle id="XMLID_12_" class="st3" cx="178.2" cy="86.6" r="16.6"/>
<circle id="XMLID_40_" class="st4" cx="489.7" cy="125.6" r="16.6"/>
<circle id="XMLID_36_" class="st3" cx="444.9" cy="125.6" r="16.6"/>
<circle id="XMLID_32_" class="st3" cx="400.1" cy="125.6" r="16.6"/>
<circle id="XMLID_26_" class="st3" cx="355.2" cy="125.6" r="16.6"/>
<circle id="XMLID_19_" class="st3" cx="310.4" cy="125.6" r="16.6"/>
<circle id="XMLID_18_" class="st3" cx="265.6" cy="125.6" r="16.6"/>
<circle id="XMLID_17_" class="st3" cx="220.8" cy="125.6" r="16.6"/>
<circle id="XMLID_16_" class="st3" cx="178.2" cy="125.6" r="16.6"/>
<circle id="XMLID_70_" class="st3" cx="489.7" cy="166.6" r="16.6"/>
<circle id="XMLID_63_" class="st3" cx="444.9" cy="166.6" r="16.6"/>
<circle id="XMLID_62_" class="st3" cx="400.1" cy="166.6" r="16.6"/>
<circle id="XMLID_61_" class="st3" cx="355.2" cy="166.6" r="16.6"/>
<circle id="XMLID_54_" class="st3" cx="310.4" cy="166.6" r="16.6"/>
<circle id="XMLID_53_" class="st3" cx="265.6" cy="166.6" r="16.6"/>
<circle id="XMLID_52_" class="st3" cx="220.8" cy="166.6" r="16.6"/>
<circle id="XMLID_51_" class="st3" cx="178.2" cy="166.6" r="16.6"/>
<circle id="XMLID_50_" class="st3" cx="489.7" cy="205.6" r="16.6"/>
<circle id="XMLID_49_" class="st3" cx="444.9" cy="205.6" r="16.6"/>
<circle id="XMLID_48_" class="st4" cx="400.1" cy="205.6" r="16.6"/>
<circle id="XMLID_47_" class="st4" cx="355.2" cy="205.6" r="16.6"/>
<circle id="XMLID_46_" class="st3" cx="310.4" cy="205.6" r="16.6"/>
<circle id="XMLID_45_" class="st4" cx="265.6" cy="205.6" r="16.6"/>
<circle id="XMLID_44_" class="st3" cx="220.8" cy="205.6" r="16.6"/>
<circle id="XMLID_41_" class="st3" cx="178.2" cy="205.6" r="16.6"/>
<circle id="XMLID_140_" class="st3" cx="489.7" cy="243.6" r="16.6"/>
<circle id="XMLID_139_" class="st4" cx="444.9" cy="243.6" r="16.6"/>
<circle id="XMLID_138_" class="st3" cx="400.1" cy="243.6" r="16.6"/>
<circle id="XMLID_137_" class="st3" cx="355.2" cy="243.6" r="16.6"/>
<circle id="XMLID_136_" class="st3" cx="310.4" cy="243.6" r="16.6"/>
<circle id="XMLID_135_" class="st3" cx="265.6" cy="243.6" r="16.6"/>
<circle id="XMLID_134_" class="st3" cx="220.8" cy="243.6" r="16.6"/>
<circle id="XMLID_133_" class="st3" cx="178.2" cy="243.6" r="16.6"/>
<circle id="XMLID_132_" class="st3" cx="489.7" cy="282.6" r="16.6"/>
<circle id="XMLID_131_" class="st3" cx="444.9" cy="282.6" r="16.6"/>
<circle id="XMLID_130_" class="st3" cx="400.1" cy="282.6" r="16.6"/>
<circle id="XMLID_129_" class="st3" cx="355.2" cy="282.6" r="16.6"/>
<circle id="XMLID_128_" class="st3" cx="310.4" cy="282.6" r="16.6"/>
<circle id="XMLID_127_" class="st3" cx="265.6" cy="282.6" r="16.6"/>
<circle id="XMLID_126_" class="st4" cx="220.8" cy="282.6" r="16.6"/>
<circle id="XMLID_125_" class="st3" cx="178.2" cy="282.6" r="16.6"/>
<circle id="XMLID_124_" class="st3" cx="489.7" cy="323.6" r="16.6"/>
<circle id="XMLID_123_" class="st3" cx="444.9" cy="323.6" r="16.6"/>
<circle id="XMLID_122_" class="st3" cx="400.1" cy="323.6" r="16.6"/>
<circle id="XMLID_121_" class="st3" cx="355.2" cy="323.6" r="16.6"/>
<circle id="XMLID_120_" class="st3" cx="310.4" cy="323.6" r="16.6"/>
<circle id="XMLID_119_" class="st3" cx="265.6" cy="323.6" r="16.6"/>
<circle id="XMLID_118_" class="st3" cx="220.8" cy="323.6" r="16.6"/>
<circle id="XMLID_117_" class="st4" cx="178.2" cy="323.6" r="16.6"/>
<circle id="XMLID_116_" class="st3" cx="489.7" cy="362.6" r="16.6"/>
<circle id="XMLID_115_" class="st3" cx="444.9" cy="362.6" r="16.6"/>
<circle id="XMLID_114_" class="st3" cx="400.1" cy="362.6" r="16.6"/>
<circle id="XMLID_108_" class="st3" cx="355.2" cy="362.6" r="16.6"/>
<circle id="XMLID_100_" class="st3" cx="310.4" cy="362.6" r="16.6"/>
<circle id="XMLID_99_" class="st3" cx="265.6" cy="362.6" r="16.6"/>
<circle id="XMLID_72_" class="st3" cx="220.8" cy="362.6" r="16.6"/>
<circle id="XMLID_71_" class="st3" cx="178.2" cy="362.6" r="16.6"/>
<circle id="XMLID_156_" class="st3" cx="489.7" cy="400.6" r="16.6"/>
<circle id="XMLID_155_" class="st3" cx="444.9" cy="400.6" r="16.6"/>
<circle id="XMLID_154_" class="st3" cx="400.1" cy="400.6" r="16.6"/>
<circle id="XMLID_153_" class="st3" cx="355.2" cy="400.6" r="16.6"/>
<circle id="XMLID_152_" class="st3" cx="310.4" cy="400.6" r="16.6"/>
<circle id="XMLID_151_" class="st3" cx="265.6" cy="400.6" r="16.6"/>
<circle id="XMLID_150_" class="st3" cx="220.8" cy="400.6" r="16.6"/>
<circle id="XMLID_149_" class="st3" cx="178.2" cy="400.6" r="16.6"/>
<circle id="XMLID_148_" class="st3" cx="489.7" cy="439.6" r="16.6"/>
<circle id="XMLID_147_" class="st3" cx="444.9" cy="439.6" r="16.6"/>
<circle id="XMLID_146_" class="st3" cx="400.1" cy="439.6" r="16.6"/>
<circle id="XMLID_145_" class="st3" cx="355.2" cy="439.6" r="16.6"/>
<circle id="XMLID_144_" class="st3" cx="310.4" cy="439.6" r="16.6"/>
<circle id="XMLID_143_" class="st3" cx="265.6" cy="439.6" r="16.6"/>
<circle id="XMLID_142_" class="st3" cx="220.8" cy="439.6" r="16.6"/>
<circle id="XMLID_141_" class="st3" cx="178.2" cy="439.6" r="16.6"/>
<line id="XMLID_7_" class="st5" x1="586" y1="415.5" x2="607" y2="415.5"/>
<line id="XMLID_21_" class="st5" x1="586" y1="314.5" x2="631" y2="314.5"/>
<line id="XMLID_22_" class="st5" x1="586" y1="216.5" x2="607" y2="216.5"/>
<line id="XMLID_24_" class="st5" x1="586" y1="117.5" x2="607" y2="117.5"/>
<line id="XMLID_11_" class="st5" x1="606.5" y1="417" x2="606.5" y2="32"/>
<line id="XMLID_25_" class="st5" x1="177.5" y1="466" x2="177.5" y2="503"/>
<line id="XMLID_33_" class="st5" x1="220.5" y1="466" x2="220.5" y2="503"/>
<line id="XMLID_35_" class="st5" x1="265.5" y1="466" x2="265.5" y2="503"/>
<line id="XMLID_34_" class="st5" x1="310.5" y1="466" x2="310.5" y2="503"/>
<line id="XMLID_39_" class="st5" x1="357.5" y1="466" x2="357.5" y2="503"/>
<line id="XMLID_55_" class="st5" x1="310.5" y1="21" x2="310.5" y2="58"/>
<line id="XMLID_38_" class="st5" x1="400.5" y1="466" x2="400.5" y2="503"/>
<line id="XMLID_37_" class="st5" x1="445.5" y1="466" x2="445.5" y2="503"/>
<line id="XMLID_31_" class="st5" x1="490.5" y1="466" x2="490.5" y2="503"/>
<line id="XMLID_28_" class="st5" x1="176" y1="503.5" x2="612" y2="503.5"/>
<line id="XMLID_42_" class="st5" x1="309" y1="21.5" x2="341" y2="21.5"/>
</svg>
